<?xml version="1.0" encoding="UTF-8" standalone="no"?>
<!DOCTYPE svg PUBLIC "-//W3C//DTD SVG 1.1//EN"
 "http://www.w3.org/Graphics/SVG/1.1/DTD/svg11.dtd">
<!-- Generated by graphviz version 2.47.0 (20210316.0004)
 -->
<!-- Title: dbml Pages: 1 -->
<svg width="1443pt" height="800pt"
 viewBox="0.00 0.00 1443.30 800.49" xmlns="http://www.w3.org/2000/svg" xmlns:xlink="http://www.w3.org/1999/xlink">
<g id="graph0" class="graph" transform="scale(1 1) rotate(0) translate(4 796.49)">
<title>dbml</title>
<!-- Client -->
<g id="Client" class="node">
<title>Client</title>
<ellipse fill="none" stroke="black" stroke-width="0" cx="1245.8" cy="-619.96" rx="189.51" ry="172.57"/>
<polygon fill="#1d71b8" stroke="transparent" points="1113.8,-679.96 1113.8,-739.96 1377.8,-739.96 1377.8,-679.96 1113.8,-679.96"/>
<polygon fill="none" stroke="#29235c" points="1113.8,-679.96 1113.8,-739.96 1377.8,-739.96 1377.8,-679.96 1113.8,-679.96"/>
<text text-anchor="start" x="1142.66" y="-701.16" font-family="Helvetica,sans-Serif" font-weight="bold" font-size="32.00" fill="#ffffff"> &#160;&#160;&#160;&#160;&#160;&#160;Client &#160;&#160;&#160;&#160;&#160;&#160;</text>
<polygon fill="#e7e2dd" stroke="transparent" points="1113.8,-619.96 1113.8,-679.96 1377.8,-679.96 1377.8,-619.96 1113.8,-619.96"/>
<polygon fill="none" stroke="#29235c" points="1113.8,-619.96 1113.8,-679.96 1377.8,-679.96 1377.8,-619.96 1113.8,-619.96"/>
<text text-anchor="start" x="1124.8" y="-641.16" font-family="Helvetica,sans-Serif" font-weight="bold" font-size="32.00" fill="#29235c">id</text>
<text text-anchor="start" x="1149.69" y="-641.16" font-family="Helvetica,sans-Serif" font-size="32.00" fill="#29235c"> &#160;&#160;&#160;</text>
<text text-anchor="start" x="1333.01" y="-641.16" font-family="Helvetica,sans-Serif" font-style="italic" font-size="32.00" fill="#29235c">int</text>
<polygon fill="#e7e2dd" stroke="transparent" points="1113.8,-559.96 1113.8,-619.96 1377.8,-619.96 1377.8,-559.96 1113.8,-559.96"/>
<polygon fill="none" stroke="#29235c" points="1113.8,-559.96 1113.8,-619.96 1377.8,-619.96 1377.8,-559.96 1113.8,-559.96"/>
<text text-anchor="start" x="1124.4" y="-580.16" font-family="Helvetica,sans-Serif" font-size="32.00" fill="#29235c">nom &#160;&#160;&#160;</text>
<text text-anchor="start" x="1221.42" y="-581.16" font-family="Helvetica,sans-Serif" font-style="italic" font-size="32.00" fill="#29235c">varchar</text>
<text text-anchor="start" x="1328.09" y="-581.16" font-family="Helvetica,sans-Serif" font-size="32.00" fill="#29235c"> </text>
<text text-anchor="start" x="1336.98" y="-581.16" font-family="Helvetica,sans-Serif" font-weight="bold" font-size="32.00" fill="#29235c">(!)</text>
<polygon fill="#e7e2dd" stroke="transparent" points="1113.8,-499.96 1113.8,-559.96 1377.8,-559.96 1377.8,-499.96 1113.8,-499.96"/>
<polygon fill="none" stroke="#29235c" points="1113.8,-499.96 1113.8,-559.96 1377.8,-559.96 1377.8,-499.96 1113.8,-499.96"/>
<text text-anchor="start" x="1124.8" y="-520.16" font-family="Helvetica,sans-Serif" font-size="32.00" fill="#29235c">adresse &#160;&#160;&#160;</text>
<text text-anchor="start" x="1315.22" y="-521.16" font-family="Helvetica,sans-Serif" font-style="italic" font-size="32.00" fill="#29235c">text</text>
<polygon fill="none" stroke="#29235c" stroke-width="2" points="1112.8,-498.96 1112.8,-740.96 1378.8,-740.96 1378.8,-498.96 1112.8,-498.96"/>
</g>
<!-- Commande -->
<g id="Commande" class="node">
<title>Commande</title>
<ellipse fill="none" stroke="black" stroke-width="0" cx="776.34" cy="-619.96" rx="222.98" ry="172.57"/>
<polygon fill="#1d71b8" stroke="transparent" points="621.34,-679.96 621.34,-739.96 932.34,-739.96 932.34,-679.96 621.34,-679.96"/>
<polygon fill="none" stroke="#29235c" points="621.34,-679.96 621.34,-739.96 932.34,-739.96 932.34,-679.96 621.34,-679.96"/>
<text text-anchor="start" x="631.92" y="-701.16" font-family="Helvetica,sans-Serif" font-weight="bold" font-size="32.00" fill="#ffffff"> &#160;&#160;&#160;&#160;&#160;&#160;Commande &#160;&#160;&#160;&#160;&#160;&#160;</text>
<polygon fill="#e7e2dd" stroke="transparent" points="621.34,-619.96 621.34,-679.96 932.34,-679.96 932.34,-619.96 621.34,-619.96"/>
<polygon fill="none" stroke="#29235c" points="621.34,-619.96 621.34,-679.96 932.34,-679.96 932.34,-619.96 621.34,-619.96"/>
<text text-anchor="start" x="632.34" y="-641.16" font-family="Helvetica,sans-Serif" font-weight="bold" font-size="32.00" fill="#29235c">id</text>
<text text-anchor="start" x="657.23" y="-641.16" font-family="Helvetica,sans-Serif" font-size="32.00" fill="#29235c"> &#160;&#160;&#160;</text>
<text text-anchor="start" x="887.56" y="-641.16" font-family="Helvetica,sans-Serif" font-style="italic" font-size="32.00" fill="#29235c">int</text>
<polygon fill="#e7e2dd" stroke="transparent" points="621.34,-559.96 621.34,-619.96 932.34,-619.96 932.34,-559.96 621.34,-559.96"/>
<polygon fill="none" stroke="#29235c" points="621.34,-559.96 621.34,-619.96 932.34,-619.96 932.34,-559.96 621.34,-559.96"/>
<text text-anchor="start" x="632.34" y="-580.16" font-family="Helvetica,sans-Serif" font-size="32.00" fill="#29235c">date &#160;&#160;&#160;</text>
<text text-anchor="start" x="859.08" y="-581.16" font-family="Helvetica,sans-Serif" font-style="italic" font-size="32.00" fill="#29235c">date</text>
<polygon fill="#e7e2dd" stroke="transparent" points="621.34,-499.96 621.34,-559.96 932.34,-559.96 932.34,-499.96 621.34,-499.96"/>
<polygon fill="none" stroke="#29235c" points="621.34,-499.96 621.34,-559.96 932.34,-559.96 932.34,-499.96 621.34,-499.96"/>
<text text-anchor="start" x="632.34" y="-520.16" font-family="Helvetica,sans-Serif" font-size="32.00" fill="#29235c">client_id &#160;&#160;&#160;</text>
<text text-anchor="start" x="887.56" y="-521.16" font-family="Helvetica,sans-Serif" font-style="italic" font-size="32.00" fill="#29235c">int</text>
<polygon fill="none" stroke="#29235c" stroke-width="2" points="619.84,-498.96 619.84,-740.96 932.84,-740.96 932.84,-498.96 619.84,-498.96"/>
</g>
<!-- Commande&#45;&gt;Client -->
<!-- Commande&#45;&gt;Client -->
<g id="edge2" class="edge">
<title>Commande:e&#45;&gt;Client:w</title>
<path fill="none" stroke="#29235c" stroke-width="3" d="M933.34,-529.96C1025.73,-529.96 1017.62,-641.22 1102.55,-649.48"/>
<polygon fill="#29235c" stroke="#29235c" stroke-width="3" points="1102.64,-652.99 1112.8,-649.96 1102.97,-645.99 1102.64,-652.99"/>
<text text-anchor="middle" x="1103.9" y="-621.16" font-family="Helvetica,sans-Serif" font-size="32.00" fill="#29235c">1</text>
<text text-anchor="middle" x="939.56" y="-501.16" font-family="Helvetica,sans-Serif" font-size="32.00" fill="#29235c">*</text>
</g>
<!-- LigneDeDetail -->
<g id="LigneDeDetail" class="node">
<title>LigneDeDetail</title>
<ellipse fill="none" stroke="black" stroke-width="0" cx="248.19" cy="-491.96" rx="248.39" ry="214.92"/>
<polygon fill="#1d71b8" stroke="transparent" points="75.19,-581.96 75.19,-641.96 422.19,-641.96 422.19,-581.96 75.19,-581.96"/>
<polygon fill="none" stroke="#29235c" points="75.19,-581.96 75.19,-641.96 422.19,-641.96 422.19,-581.96 75.19,-581.96"/>
<text text-anchor="start" x="85.99" y="-603.16" font-family="Helvetica,sans-Serif" font-weight="bold" font-size="32.00" fill="#ffffff"> &#160;&#160;&#160;&#160;&#160;&#160;LigneDeDetail &#160;&#160;&#160;&#160;&#160;&#160;</text>
<polygon fill="#e7e2dd" stroke="transparent" points="75.19,-521.96 75.19,-581.96 422.19,-581.96 422.19,-521.96 75.19,-521.96"/>
<polygon fill="none" stroke="#29235c" points="75.19,-521.96 75.19,-581.96 422.19,-581.96 422.19,-521.96 75.19,-521.96"/>
<text text-anchor="start" x="86.19" y="-543.16" font-family="Helvetica,sans-Serif" font-weight="bold" font-size="32.00" fill="#29235c">id</text>
<text text-anchor="start" x="111.08" y="-543.16" font-family="Helvetica,sans-Serif" font-size="32.00" fill="#29235c"> &#160;&#160;&#160;</text>
<text text-anchor="start" x="377.41" y="-543.16" font-family="Helvetica,sans-Serif" font-style="italic" font-size="32.00" fill="#29235c">int</text>
<polygon fill="#e7e2dd" stroke="transparent" points="75.19,-461.96 75.19,-521.96 422.19,-521.96 422.19,-461.96 75.19,-461.96"/>
<polygon fill="none" stroke="#29235c" points="75.19,-461.96 75.19,-521.96 422.19,-521.96 422.19,-461.96 75.19,-461.96"/>
<text text-anchor="start" x="86.19" y="-482.16" font-family="Helvetica,sans-Serif" font-size="32.00" fill="#29235c">quantite &#160;&#160;&#160;</text>
<text text-anchor="start" x="377.41" y="-483.16" font-family="Helvetica,sans-Serif" font-style="italic" font-size="32.00" fill="#29235c">int</text>
<polygon fill="#e7e2dd" stroke="transparent" points="75.19,-401.96 75.19,-461.96 422.19,-461.96 422.19,-401.96 75.19,-401.96"/>
<polygon fill="none" stroke="#29235c" points="75.19,-401.96 75.19,-461.96 422.19,-461.96 422.19,-401.96 75.19,-401.96"/>
<text text-anchor="start" x="86.19" y="-422.16" font-family="Helvetica,sans-Serif" font-size="32.00" fill="#29235c">commande_id &#160;&#160;&#160;</text>
<text text-anchor="start" x="377.41" y="-423.16" font-family="Helvetica,sans-Serif" font-style="italic" font-size="32.00" fill="#29235c">int</text>
<polygon fill="#e7e2dd" stroke="transparent" points="75.19,-341.96 75.19,-401.96 422.19,-401.96 422.19,-341.96 75.19,-341.96"/>
<polygon fill="none" stroke="#29235c" points="75.19,-341.96 75.19,-401.96 422.19,-401.96 422.19,-341.96 75.19,-341.96"/>
<text text-anchor="start" x="86.19" y="-362.16" font-family="Helvetica,sans-Serif" font-size="32.00" fill="#29235c">produit_id &#160;&#160;&#160;</text>
<text text-anchor="start" x="377.41" y="-363.16" font-family="Helvetica,sans-Serif" font-style="italic" font-size="32.00" fill="#29235c">int</text>
<polygon fill="none" stroke="#29235c" stroke-width="2" points="73.69,-340.96 73.69,-642.96 422.69,-642.96 422.69,-340.96 73.69,-340.96"/>
</g>
<!-- LigneDeDetail&#45;&gt;Commande -->
<!-- LigneDeDetail&#45;&gt;Commande -->
<g id="edge4" class="edge">
<title>LigneDeDetail:e&#45;&gt;Commande:w</title>
<path fill="none" stroke="#29235c" stroke-width="3" d="M423.19,-431.96C550.25,-431.96 493.07,-638.2 610.05,-649.48"/>
<polygon fill="#29235c" stroke="#29235c" stroke-width="3" points="610.19,-652.99 620.34,-649.96 610.51,-646 610.19,-652.99"/>
<text text-anchor="middle" x="629.24" y="-621.16" font-family="Helvetica,sans-Serif" font-size="32.00" fill="#29235c">1</text>
<text text-anchor="middle" x="416.97" y="-403.16" font-family="Helvetica,sans-Serif" font-size="32.00" fill="#29235c">*</text>
</g>
<!-- Produit -->
<g id="Produit" class="node">
<title>Produit</title>
<ellipse fill="none" stroke="black" stroke-width="0" cx="776.34" cy="-214.96" rx="243.9" ry="214.92"/>
<polygon fill="#1d71b8" stroke="transparent" points="606.34,-304.96 606.34,-364.96 947.34,-364.96 947.34,-304.96 606.34,-304.96"/>
<polygon fill="none" stroke="#29235c" points="606.34,-304.96 606.34,-364.96 947.34,-364.96 947.34,-304.96 606.34,-304.96"/>
<text text-anchor="start" x="663.91" y="-326.16" font-family="Helvetica,sans-Serif" font-weight="bold" font-size="32.00" fill="#ffffff"> &#160;&#160;&#160;&#160;&#160;&#160;Produit &#160;&#160;&#160;&#160;&#160;&#160;</text>
<polygon fill="#e7e2dd" stroke="transparent" points="606.34,-244.96 606.34,-304.96 947.34,-304.96 947.34,-244.96 606.34,-244.96"/>
<polygon fill="none" stroke="#29235c" points="606.34,-244.96 606.34,-304.96 947.34,-304.96 947.34,-244.96 606.34,-244.96"/>
<text text-anchor="start" x="617.34" y="-266.16" font-family="Helvetica,sans-Serif" font-weight="bold" font-size="32.00" fill="#29235c">id</text>
<text text-anchor="start" x="642.23" y="-266.16" font-family="Helvetica,sans-Serif" font-size="32.00" fill="#29235c"> &#160;&#160;&#160;</text>
<text text-anchor="start" x="902.56" y="-266.16" font-family="Helvetica,sans-Serif" font-style="italic" font-size="32.00" fill="#29235c">int</text>
<polygon fill="#e7e2dd" stroke="transparent" points="606.34,-184.96 606.34,-244.96 947.34,-244.96 947.34,-184.96 606.34,-184.96"/>
<polygon fill="none" stroke="#29235c" points="606.34,-184.96 606.34,-244.96 947.34,-244.96 947.34,-184.96 606.34,-184.96"/>
<text text-anchor="start" x="617.34" y="-205.16" font-family="Helvetica,sans-Serif" font-size="32.00" fill="#29235c">label &#160;&#160;&#160;</text>
<text text-anchor="start" x="790.58" y="-206.16" font-family="Helvetica,sans-Serif" font-style="italic" font-size="32.00" fill="#29235c">varchar</text>
<text text-anchor="start" x="897.25" y="-206.16" font-family="Helvetica,sans-Serif" font-size="32.00" fill="#29235c"> </text>
<text text-anchor="start" x="906.14" y="-206.16" font-family="Helvetica,sans-Serif" font-weight="bold" font-size="32.00" fill="#29235c">(!)</text>
<polygon fill="#e7e2dd" stroke="transparent" points="606.34,-124.96 606.34,-184.96 947.34,-184.96 947.34,-124.96 606.34,-124.96"/>
<polygon fill="none" stroke="#29235c" points="606.34,-124.96 606.34,-184.96 947.34,-184.96 947.34,-124.96 606.34,-124.96"/>
<text text-anchor="start" x="617.34" y="-145.16" font-family="Helvetica,sans-Serif" font-size="32.00" fill="#29235c">description &#160;&#160;&#160;</text>
<text text-anchor="start" x="845.68" y="-146.16" font-family="Helvetica,sans-Serif" font-style="italic" font-size="32.00" fill="#29235c">text</text>
<text text-anchor="start" x="897.25" y="-146.16" font-family="Helvetica,sans-Serif" font-size="32.00" fill="#29235c"> </text>
<text text-anchor="start" x="906.14" y="-146.16" font-family="Helvetica,sans-Serif" font-weight="bold" font-size="32.00" fill="#29235c">(!)</text>
<polygon fill="#e7e2dd" stroke="transparent" points="606.34,-64.96 606.34,-124.96 947.34,-124.96 947.34,-64.96 606.34,-64.96"/>
<polygon fill="none" stroke="#29235c" points="606.34,-64.96 606.34,-124.96 947.34,-124.96 947.34,-64.96 606.34,-64.96"/>
<text text-anchor="start" x="616.94" y="-85.16" font-family="Helvetica,sans-Serif" font-size="32.00" fill="#29235c">prix_unitaire &#160;&#160;&#160;</text>
<text text-anchor="start" x="826.23" y="-86.16" font-family="Helvetica,sans-Serif" font-style="italic" font-size="32.00" fill="#29235c">decimal</text>
<polygon fill="none" stroke="#29235c" stroke-width="2" points="604.84,-63.96 604.84,-365.96 947.84,-365.96 947.84,-63.96 604.84,-63.96"/>
</g>
<!-- LigneDeDetail&#45;&gt;Produit -->
<!-- LigneDeDetail&#45;&gt;Produit -->
<g id="edge6" class="edge">
<title>LigneDeDetail:e&#45;&gt;Produit:w</title>
<path fill="none" stroke="#29235c" stroke-width="3" d="M423.19,-371.96C511.33,-371.96 513.58,-282.39 595.01,-275.39"/>
<polygon fill="#29235c" stroke="#29235c" stroke-width="3" points="595.5,-278.88 605.34,-274.96 595.2,-271.88 595.5,-278.88"/>
<text text-anchor="middle" x="614.24" y="-246.16" font-family="Helvetica,sans-Serif" font-size="32.00" fill="#29235c">1</text>
<text text-anchor="middle" x="416.97" y="-343.16" font-family="Helvetica,sans-Serif" font-size="32.00" fill="#29235c">*</text>
</g>
</g>
</svg>
