<?xml version="1.0" encoding="UTF-8" standalone="no"?>
<!DOCTYPE svg PUBLIC "-//W3C//DTD SVG 1.1//EN"
 "http://www.w3.org/Graphics/SVG/1.1/DTD/svg11.dtd">
<!-- Generated by graphviz version 2.47.0 (20210316.0004)
 -->
<!-- Title: dbml Pages: 1 -->
<svg width="1466pt" height="800pt"
 viewBox="0.00 0.00 1465.93 800.49" xmlns="http://www.w3.org/2000/svg" xmlns:xlink="http://www.w3.org/1999/xlink">
<g id="graph0" class="graph" transform="scale(1 1) rotate(0) translate(4 796.49)">
<title>dbml</title>
<!-- Client -->
<g id="Client" class="node">
<title>Client</title>
<ellipse fill="none" stroke="black" stroke-width="0" cx="1268.42" cy="-619.96" rx="189.51" ry="172.57"/>
<polygon fill="#1d71b8" stroke="transparent" points="1136.42,-679.96 1136.42,-739.96 1400.42,-739.96 1400.42,-679.96 1136.42,-679.96"/>
<polygon fill="none" stroke="#29235c" points="1136.42,-679.96 1136.42,-739.96 1400.42,-739.96 1400.42,-679.96 1136.42,-679.96"/>
<text text-anchor="start" x="1165.29" y="-701.16" font-family="Helvetica,sans-Serif" font-weight="bold" font-size="32.00" fill="#ffffff"> &#160;&#160;&#160;&#160;&#160;&#160;Client &#160;&#160;&#160;&#160;&#160;&#160;</text>
<polygon fill="#e7e2dd" stroke="transparent" points="1136.42,-619.96 1136.42,-679.96 1400.42,-679.96 1400.42,-619.96 1136.42,-619.96"/>
<polygon fill="none" stroke="#29235c" points="1136.42,-619.96 1136.42,-679.96 1400.42,-679.96 1400.42,-619.96 1136.42,-619.96"/>
<text text-anchor="start" x="1147.42" y="-641.16" font-family="Helvetica,sans-Serif" font-weight="bold" font-size="32.00" fill="#29235c">id</text>
<text text-anchor="start" x="1172.31" y="-641.16" font-family="Helvetica,sans-Serif" font-size="32.00" fill="#29235c"> &#160;&#160;&#160;</text>
<text text-anchor="start" x="1355.64" y="-641.16" font-family="Helvetica,sans-Serif" font-style="italic" font-size="32.00" fill="#29235c">int</text>
<polygon fill="#e7e2dd" stroke="transparent" points="1136.42,-559.96 1136.42,-619.96 1400.42,-619.96 1400.42,-559.96 1136.42,-559.96"/>
<polygon fill="none" stroke="#29235c" points="1136.42,-559.96 1136.42,-619.96 1400.42,-619.96 1400.42,-559.96 1136.42,-559.96"/>
<text text-anchor="start" x="1147.02" y="-580.16" font-family="Helvetica,sans-Serif" font-size="32.00" fill="#29235c">nom &#160;&#160;&#160;</text>
<text text-anchor="start" x="1244.04" y="-581.16" font-family="Helvetica,sans-Serif" font-style="italic" font-size="32.00" fill="#29235c">varchar</text>
<text text-anchor="start" x="1350.72" y="-581.16" font-family="Helvetica,sans-Serif" font-size="32.00" fill="#29235c"> </text>
<text text-anchor="start" x="1359.61" y="-581.16" font-family="Helvetica,sans-Serif" font-weight="bold" font-size="32.00" fill="#29235c">(!)</text>
<polygon fill="#e7e2dd" stroke="transparent" points="1136.42,-499.96 1136.42,-559.96 1400.42,-559.96 1400.42,-499.96 1136.42,-499.96"/>
<polygon fill="none" stroke="#29235c" points="1136.42,-499.96 1136.42,-559.96 1400.42,-559.96 1400.42,-499.96 1136.42,-499.96"/>
<text text-anchor="start" x="1147.42" y="-520.16" font-family="Helvetica,sans-Serif" font-size="32.00" fill="#29235c">adresse &#160;&#160;&#160;</text>
<text text-anchor="start" x="1337.85" y="-521.16" font-family="Helvetica,sans-Serif" font-style="italic" font-size="32.00" fill="#29235c">text</text>
<polygon fill="none" stroke="#29235c" stroke-width="2" points="1135.42,-498.96 1135.42,-740.96 1401.42,-740.96 1401.42,-498.96 1135.42,-498.96"/>
</g>
<!-- Commande -->
<g id="Commande" class="node">
<title>Commande</title>
<ellipse fill="none" stroke="black" stroke-width="0" cx="820.18" cy="-619.96" rx="222.98" ry="172.57"/>
<polygon fill="#1d71b8" stroke="transparent" points="665.18,-679.96 665.18,-739.96 976.18,-739.96 976.18,-679.96 665.18,-679.96"/>
<polygon fill="none" stroke="#29235c" points="665.18,-679.96 665.18,-739.96 976.18,-739.96 976.18,-679.96 665.18,-679.96"/>
<text text-anchor="start" x="675.76" y="-701.16" font-family="Helvetica,sans-Serif" font-weight="bold" font-size="32.00" fill="#ffffff"> &#160;&#160;&#160;&#160;&#160;&#160;Commande &#160;&#160;&#160;&#160;&#160;&#160;</text>
<polygon fill="#e7e2dd" stroke="transparent" points="665.18,-619.96 665.18,-679.96 976.18,-679.96 976.18,-619.96 665.18,-619.96"/>
<polygon fill="none" stroke="#29235c" points="665.18,-619.96 665.18,-679.96 976.18,-679.96 976.18,-619.96 665.18,-619.96"/>
<text text-anchor="start" x="676.18" y="-641.16" font-family="Helvetica,sans-Serif" font-weight="bold" font-size="32.00" fill="#29235c">id</text>
<text text-anchor="start" x="701.07" y="-641.16" font-family="Helvetica,sans-Serif" font-size="32.00" fill="#29235c"> &#160;&#160;&#160;</text>
<text text-anchor="start" x="931.4" y="-641.16" font-family="Helvetica,sans-Serif" font-style="italic" font-size="32.00" fill="#29235c">int</text>
<polygon fill="#e7e2dd" stroke="transparent" points="665.18,-559.96 665.18,-619.96 976.18,-619.96 976.18,-559.96 665.18,-559.96"/>
<polygon fill="none" stroke="#29235c" points="665.18,-559.96 665.18,-619.96 976.18,-619.96 976.18,-559.96 665.18,-559.96"/>
<text text-anchor="start" x="676.18" y="-580.16" font-family="Helvetica,sans-Serif" font-size="32.00" fill="#29235c">date &#160;&#160;&#160;</text>
<text text-anchor="start" x="902.92" y="-581.16" font-family="Helvetica,sans-Serif" font-style="italic" font-size="32.00" fill="#29235c">date</text>
<polygon fill="#e7e2dd" stroke="transparent" points="665.18,-499.96 665.18,-559.96 976.18,-559.96 976.18,-499.96 665.18,-499.96"/>
<polygon fill="none" stroke="#29235c" points="665.18,-499.96 665.18,-559.96 976.18,-559.96 976.18,-499.96 665.18,-499.96"/>
<text text-anchor="start" x="676.18" y="-520.16" font-family="Helvetica,sans-Serif" font-size="32.00" fill="#29235c">client_id &#160;&#160;&#160;</text>
<text text-anchor="start" x="931.4" y="-521.16" font-family="Helvetica,sans-Serif" font-style="italic" font-size="32.00" fill="#29235c">int</text>
<polygon fill="none" stroke="#29235c" stroke-width="2" points="663.68,-498.96 663.68,-740.96 976.68,-740.96 976.68,-498.96 663.68,-498.96"/>
</g>
<!-- Commande&#45;&gt;Client -->
<!-- Commande&#45;&gt;Client -->
<g id="edge2" class="edge">
<title>Commande:e&#45;&gt;Client:w</title>
<path fill="none" stroke="#29235c" stroke-width="3" d="M977.18,-529.96C1061.83,-529.96 1048.48,-640.32 1125.09,-649.37"/>
<polygon fill="#29235c" stroke="#29235c" stroke-width="3" points="1125.24,-652.89 1135.42,-649.96 1125.64,-645.9 1125.24,-652.89"/>
<text text-anchor="middle" x="1126.53" y="-659.56" font-family="Helvetica,sans-Serif" font-size="32.00" fill="#29235c">1</text>
<text text-anchor="middle" x="983.4" y="-501.16" font-family="Helvetica,sans-Serif" font-size="32.00" fill="#29235c">*</text>
</g>
<!-- CommandeDetail -->
<g id="CommandeDetail" class="node">
<title>CommandeDetail</title>
<ellipse fill="none" stroke="black" stroke-width="0" cx="280.72" cy="-461.96" rx="280.94" ry="172.57"/>
<polygon fill="#1d71b8" stroke="transparent" points="84.72,-521.96 84.72,-581.96 477.72,-581.96 477.72,-521.96 84.72,-521.96"/>
<polygon fill="none" stroke="#29235c" points="84.72,-521.96 84.72,-581.96 477.72,-581.96 477.72,-521.96 84.72,-521.96"/>
<text text-anchor="start" x="95.41" y="-543.16" font-family="Helvetica,sans-Serif" font-weight="bold" font-size="32.00" fill="#ffffff"> &#160;&#160;&#160;&#160;&#160;&#160;CommandeDetail &#160;&#160;&#160;&#160;&#160;&#160;</text>
<polygon fill="#e7e2dd" stroke="transparent" points="84.72,-461.96 84.72,-521.96 477.72,-521.96 477.72,-461.96 84.72,-461.96"/>
<polygon fill="none" stroke="#29235c" points="84.72,-461.96 84.72,-521.96 477.72,-521.96 477.72,-461.96 84.72,-461.96"/>
<text text-anchor="start" x="95.72" y="-483.16" font-family="Helvetica,sans-Serif" font-weight="bold" font-size="32.00" fill="#29235c">commande_id</text>
<text text-anchor="start" x="296.65" y="-483.16" font-family="Helvetica,sans-Serif" font-size="32.00" fill="#29235c"> &#160;&#160;&#160;</text>
<text text-anchor="start" x="432.94" y="-483.16" font-family="Helvetica,sans-Serif" font-style="italic" font-size="32.00" fill="#29235c">int</text>
<polygon fill="#e7e2dd" stroke="transparent" points="84.72,-401.96 84.72,-461.96 477.72,-461.96 477.72,-401.96 84.72,-401.96"/>
<polygon fill="none" stroke="#29235c" points="84.72,-401.96 84.72,-461.96 477.72,-461.96 477.72,-401.96 84.72,-401.96"/>
<text text-anchor="start" x="95.72" y="-423.16" font-family="Helvetica,sans-Serif" font-weight="bold" font-size="32.00" fill="#29235c">produit_id</text>
<text text-anchor="start" x="236.2" y="-423.16" font-family="Helvetica,sans-Serif" font-size="32.00" fill="#29235c"> &#160;&#160;&#160;</text>
<text text-anchor="start" x="432.94" y="-423.16" font-family="Helvetica,sans-Serif" font-style="italic" font-size="32.00" fill="#29235c">int</text>
<polygon fill="#e7e2dd" stroke="transparent" points="84.72,-341.96 84.72,-401.96 477.72,-401.96 477.72,-341.96 84.72,-341.96"/>
<polygon fill="none" stroke="#29235c" points="84.72,-341.96 84.72,-401.96 477.72,-401.96 477.72,-341.96 84.72,-341.96"/>
<text text-anchor="start" x="95.72" y="-362.16" font-family="Helvetica,sans-Serif" font-size="32.00" fill="#29235c">quantite &#160;&#160;&#160;</text>
<text text-anchor="start" x="432.94" y="-363.16" font-family="Helvetica,sans-Serif" font-style="italic" font-size="32.00" fill="#29235c">int</text>
<polygon fill="none" stroke="#29235c" stroke-width="2" points="83.22,-340.96 83.22,-582.96 478.22,-582.96 478.22,-340.96 83.22,-340.96"/>
</g>
<!-- CommandeDetail&#45;&gt;Commande -->
<!-- CommandeDetail&#45;&gt;Commande -->
<g id="edge4" class="edge">
<title>CommandeDetail:e&#45;&gt;Commande:w</title>
<path fill="none" stroke="#29235c" stroke-width="3" d="M478.72,-491.96C583.52,-491.96 557.76,-639.94 654.14,-649.48"/>
<polygon fill="#29235c" stroke="#29235c" stroke-width="3" points="654.03,-652.98 664.18,-649.96 654.36,-645.99 654.03,-652.98"/>
<text text-anchor="middle" x="655.29" y="-659.56" font-family="Helvetica,sans-Serif" font-size="32.00" fill="#29235c">1</text>
<text text-anchor="middle" x="472.5" y="-463.16" font-family="Helvetica,sans-Serif" font-size="32.00" fill="#29235c">*</text>
</g>
<!-- Produit -->
<g id="Produit" class="node">
<title>Produit</title>
<ellipse fill="none" stroke="black" stroke-width="0" cx="820.18" cy="-214.96" rx="216.25" ry="214.92"/>
<polygon fill="#1d71b8" stroke="transparent" points="669.18,-304.96 669.18,-364.96 971.18,-364.96 971.18,-304.96 669.18,-304.96"/>
<polygon fill="none" stroke="#29235c" points="669.18,-304.96 669.18,-364.96 971.18,-364.96 971.18,-304.96 669.18,-304.96"/>
<text text-anchor="start" x="707.26" y="-326.16" font-family="Helvetica,sans-Serif" font-weight="bold" font-size="32.00" fill="#ffffff"> &#160;&#160;&#160;&#160;&#160;&#160;Produit &#160;&#160;&#160;&#160;&#160;&#160;</text>
<polygon fill="#e7e2dd" stroke="transparent" points="669.18,-244.96 669.18,-304.96 971.18,-304.96 971.18,-244.96 669.18,-244.96"/>
<polygon fill="none" stroke="#29235c" points="669.18,-244.96 669.18,-304.96 971.18,-304.96 971.18,-244.96 669.18,-244.96"/>
<text text-anchor="start" x="680.18" y="-266.16" font-family="Helvetica,sans-Serif" font-weight="bold" font-size="32.00" fill="#29235c">id</text>
<text text-anchor="start" x="705.07" y="-266.16" font-family="Helvetica,sans-Serif" font-size="32.00" fill="#29235c"> &#160;&#160;&#160;</text>
<text text-anchor="start" x="926.4" y="-266.16" font-family="Helvetica,sans-Serif" font-style="italic" font-size="32.00" fill="#29235c">int</text>
<polygon fill="#e7e2dd" stroke="transparent" points="669.18,-184.96 669.18,-244.96 971.18,-244.96 971.18,-184.96 669.18,-184.96"/>
<polygon fill="none" stroke="#29235c" points="669.18,-184.96 669.18,-244.96 971.18,-244.96 971.18,-184.96 669.18,-184.96"/>
<text text-anchor="start" x="680.18" y="-205.16" font-family="Helvetica,sans-Serif" font-size="32.00" fill="#29235c">label &#160;&#160;&#160;</text>
<text text-anchor="start" x="814.42" y="-206.16" font-family="Helvetica,sans-Serif" font-style="italic" font-size="32.00" fill="#29235c">varchar</text>
<text text-anchor="start" x="921.09" y="-206.16" font-family="Helvetica,sans-Serif" font-size="32.00" fill="#29235c"> </text>
<text text-anchor="start" x="929.98" y="-206.16" font-family="Helvetica,sans-Serif" font-weight="bold" font-size="32.00" fill="#29235c">(!)</text>
<polygon fill="#e7e2dd" stroke="transparent" points="669.18,-124.96 669.18,-184.96 971.18,-184.96 971.18,-124.96 669.18,-124.96"/>
<polygon fill="none" stroke="#29235c" points="669.18,-124.96 669.18,-184.96 971.18,-184.96 971.18,-124.96 669.18,-124.96"/>
<text text-anchor="start" x="680.05" y="-145.16" font-family="Helvetica,sans-Serif" font-size="32.00" fill="#29235c">description &#160;&#160;&#160;</text>
<text text-anchor="start" x="869.85" y="-146.16" font-family="Helvetica,sans-Serif" font-style="italic" font-size="32.00" fill="#29235c">text</text>
<text text-anchor="start" x="921.42" y="-146.16" font-family="Helvetica,sans-Serif" font-size="32.00" fill="#29235c"> </text>
<text text-anchor="start" x="930.32" y="-146.16" font-family="Helvetica,sans-Serif" font-weight="bold" font-size="32.00" fill="#29235c">(!)</text>
<polygon fill="#e7e2dd" stroke="transparent" points="669.18,-64.96 669.18,-124.96 971.18,-124.96 971.18,-64.96 669.18,-64.96"/>
<polygon fill="none" stroke="#29235c" points="669.18,-64.96 669.18,-124.96 971.18,-124.96 971.18,-64.96 669.18,-64.96"/>
<text text-anchor="start" x="680.18" y="-85.16" font-family="Helvetica,sans-Serif" font-size="32.00" fill="#29235c">prix &#160;&#160;&#160;</text>
<text text-anchor="start" x="849.96" y="-86.16" font-family="Helvetica,sans-Serif" font-style="italic" font-size="32.00" fill="#29235c">decimal</text>
<polygon fill="none" stroke="#29235c" stroke-width="2" points="668.18,-63.96 668.18,-365.96 972.18,-365.96 972.18,-63.96 668.18,-63.96"/>
</g>
<!-- CommandeDetail&#45;&gt;Produit -->
<!-- CommandeDetail&#45;&gt;Produit -->
<g id="edge6" class="edge">
<title>CommandeDetail:e&#45;&gt;Produit:w</title>
<path fill="none" stroke="#29235c" stroke-width="3" d="M478.72,-431.96C584.56,-431.96 560.56,-284.92 658.03,-275.44"/>
<polygon fill="#29235c" stroke="#29235c" stroke-width="3" points="658.36,-278.93 668.18,-274.96 658.03,-271.94 658.36,-278.93"/>
<text text-anchor="middle" x="659.29" y="-246.16" font-family="Helvetica,sans-Serif" font-size="32.00" fill="#29235c">1</text>
<text text-anchor="middle" x="472.5" y="-403.16" font-family="Helvetica,sans-Serif" font-size="32.00" fill="#29235c">*</text>
</g>
</g>
</svg>
